<svg id="レイヤー_1" data-name="レイヤー 1" xmlns="http://www.w3.org/2000/svg" viewBox="0 0 126.45 40.34"><defs><style>.cls-1{fill:none;stroke:#c8c8c8;stroke-miterlimit:10;}</style></defs><path class="cls-1" d="M82.8,254.58c.19-1.78.27-3.53.28-5.07L83,243.1H72l-3.23,6.42a48,48,0,0,0-2.23,5.07H63.23a54.38,54.38,0,0,0,3.12-5.71l13.86-27.44c1.18-2.34,1.72-3.48,2.16-4.62h3.19a34.72,34.72,0,0,0-.07,4.62l.31,27.45a55.92,55.92,0,0,0,.26,5.72Zm.28-31.32c0-.4,0-.45.09-3.18-.34.74-.61,1.29-.75,1.64-.39.79-.62,1.34-.73,1.54l-8.1,16.4H83.1Z" transform="translate(-62.32 -215.58)"/><path class="cls-1" d="M92.41,254.59c-1.39,0-2.38,0-3.52.15a51.94,51.94,0,0,0,1.81-6.17L97.27,222a46.57,46.57,0,0,0,1-5.27,30,30,0,0,0,3.42.1h6.74c4.58,0,6.33,3.29,4.88,9.15a14.23,14.23,0,0,1-3.35,6.66,8.49,8.49,0,0,1-3,2,3.73,3.73,0,0,1,2.55,2.09c.87,1.74.9,4.28.12,7.46-1.65,6.66-5.36,10.44-10.2,10.43Zm.07-3.38h7.62c3.45,0,5.92-2.58,7.1-7.35,1.22-4.92,0-7.46-3.5-7.46H96.14Zm12-18.19c2.94,0,5.28-2.43,6.31-6.61s0-6.21-3.17-6.22h-7.43L97,233Z" transform="translate(-62.32 -215.58)"/><path class="cls-1" d="M137.16,235.72c-3,12-9.12,19.64-15.79,19.63s-9-7.66-6.06-19.64,9.15-19.63,15.79-19.63S140.12,223.74,137.16,235.72Zm-8.55,12.73c2.49-2.78,4.64-7.41,6-12.73,1.35-5.47,1.48-9.84.36-12.73a4.88,4.88,0,0,0-4.69-3.43c-5.06,0-10,6.36-12.35,16.1s-.64,16.16,4.41,16.16C124.48,251.83,126.63,250.68,128.61,248.45Z" transform="translate(-62.32 -215.58)"/><path class="cls-1" d="M165.53,216.85a54.43,54.43,0,0,0-1.64,5.61l-4.56,18.45a25.77,25.77,0,0,1-5.05,10.59,10.75,10.75,0,0,1-8.14,3.92c-3.1,0-5.29-1.4-6.22-4s-.83-6.12.25-10.49l4.54-18.35a52.13,52.13,0,0,0,1.16-5.72h3a51.67,51.67,0,0,0-1.67,5.71l-4.49,18.2C140.91,247.91,142.5,252,147,252a8.08,8.08,0,0,0,6.35-3.33,21.9,21.9,0,0,0,3.54-7.9l4.49-18.2a52.53,52.53,0,0,0,1.16-5.71Z" transform="translate(-62.32 -215.58)"/><path class="cls-1" d="M171.43,249a53.32,53.32,0,0,0-1.14,5.62h-3A52.78,52.78,0,0,0,169,249l7.09-28.69h-4.93a15.68,15.68,0,0,0-3.73.35l1-4.18a13.17,13.17,0,0,0,3.51.35h12.33a15.26,15.26,0,0,0,3.82-.35l-1,4.18a13.47,13.47,0,0,0-3.64-.35h-4.91Z" transform="translate(-62.32 -215.58)"/></svg>