<svg id="レイヤー_1" data-name="レイヤー 1" xmlns="http://www.w3.org/2000/svg" viewBox="0 0 167.07 42.19"><defs><style>.cls-1{fill:none;stroke:#c8c8c8;stroke-miterlimit:10;}</style></defs><path class="cls-1" d="M85.89,327.72a14,14,0,0,0-.4-4.58c-.69-2.45-2.28-3.76-4.58-3.76-5.11,0-9.86,6.45-12.31,16.83s-.73,16.88,4.35,16.88c2.49,0,5-1.56,6.94-4.37a20.61,20.61,0,0,0,2.49-5.21l2.37,1.05a29,29,0,0,1-3.17,6.2c-2.69,3.9-6.06,6-9.6,6a6.3,6.3,0,0,1-6.3-4.59c-1.35-3.65-1.21-9.33.33-15.84,1.58-6.72,4.19-12.4,7.42-16.2,2.52-2.92,5.28-4.43,8.28-4.43A6,6,0,0,1,87.78,320a16.32,16.32,0,0,1,.92,6.57Z" transform="translate(-64.25 -315.2)"/><path class="cls-1" d="M111.71,336.29c-3,12.56-9.12,20.58-15.78,20.57s-9-8-6-20.59,9.15-20.58,15.78-20.57S114.68,323.73,111.71,336.29Zm-8.55,13.33c2.49-2.91,4.65-7.76,6-13.33,1.36-5.73,1.49-10.32.37-13.34-.89-2.35-2.49-3.6-4.67-3.61-5,0-9.94,6.67-12.35,16.88s-.66,16.94,4.39,16.95C99,353.17,101.19,352,103.16,349.62Z" transform="translate(-64.25 -315.2)"/><path class="cls-1" d="M123.83,316.49a30.57,30.57,0,0,0,.51,4.69l4.15,24.66c.14.89.48,3.44.71,5.68.86-4.17,1.34-6.46,1.45-6.93l5.22-22.09a57.43,57.43,0,0,0,1.16-6H140a57.67,57.67,0,0,0-1.67,6l-6.56,27.77a51.87,51.87,0,0,0-1.13,5.84h-3.44a37,37,0,0,0-.53-4.69l-4.2-25.13c-.11-.62-.45-3.6-.56-5-.45,2.45-1,5-1.31,6.36l-5.25,22.25a56.69,56.69,0,0,0-1.22,6.2h-2.93a61.44,61.44,0,0,0,1.71-6.2l6.51-27.56a54.51,54.51,0,0,0,1.13-5.84Z" transform="translate(-64.25 -315.2)"/><path class="cls-1" d="M146,350.23a53.09,53.09,0,0,0-1.14,5.89h-3a55.47,55.47,0,0,0,1.64-5.89l7.1-30.07h-4.92a15,15,0,0,0-3.72.36l1-4.38a12.28,12.28,0,0,0,3.51.37h12.31a14.69,14.69,0,0,0,3.81-.36l-1,4.38a12.56,12.56,0,0,0-3.64-.37h-4.89Z" transform="translate(-64.25 -315.2)"/><path class="cls-1" d="M173.58,356.14c.19-1.87.27-3.7.27-5.31l0-6.73h-11l-3.23,6.73a53.8,53.8,0,0,0-2.23,5.31H154a56.27,56.27,0,0,0,3.12-6L171,321.38a53,53,0,0,0,2.15-4.85h3.19a38,38,0,0,0-.07,4.84l.28,28.77c.05,3.13.1,4.64.26,6Zm.3-32.83c0-.42,0-.47.09-3.34-.34.78-.6,1.36-.75,1.72-.39.84-.62,1.41-.73,1.62l-8.1,17.19h9.5Z" transform="translate(-64.25 -315.2)"/><path class="cls-1" d="M203.44,327.81a13.47,13.47,0,0,0-.4-4.58c-.69-2.45-2.27-3.76-4.58-3.76-5.11,0-9.86,6.46-12.31,16.83s-.73,16.88,4.35,16.89c2.5,0,5-1.56,6.94-4.38a20.61,20.61,0,0,0,2.49-5.21l2.38,1a30,30,0,0,1-3.17,6.2c-2.69,3.9-6.07,6-9.61,6a6.32,6.32,0,0,1-6.3-4.6c-1.35-3.65-1.21-9.33.33-15.84,1.59-6.72,4.19-12.4,7.42-16.2,2.53-2.92,5.28-4.43,8.28-4.43a6,6,0,0,1,6.08,4.23,16.56,16.56,0,0,1,.91,6.57Z" transform="translate(-64.25 -315.2)"/><path class="cls-1" d="M214,350.28a58.72,58.72,0,0,0-1.14,5.89h-3a57.24,57.24,0,0,0,1.64-5.89l7.1-30.06h-4.93a15,15,0,0,0-3.71.36l1-4.37a12.7,12.7,0,0,0,3.51.36h12.32a14.31,14.31,0,0,0,3.81-.36l-1,4.38a12.93,12.93,0,0,0-3.64-.37h-4.89Z" transform="translate(-64.25 -315.2)"/></svg>