<svg id="レイヤー_1" data-name="レイヤー 1" xmlns="http://www.w3.org/2000/svg" viewBox="0 0 448.22 235.46"><defs><style>.cls-1{fill:#231815;}.cls-2{fill:#f6babb;}.cls-3{fill:#98cbee;}.cls-4{fill:#f6f39a;}.cls-5{fill:#bfdfbb;}</style></defs><path class="cls-1" d="M153.62,104.31" transform="translate(-16.9 -107.67)"/><path class="cls-2" d="M464,281.92l-.44-.28c.53-1,1.07-2,1.57-3l-.52-.71-2.39-1.52c.19-.38.39-.74.57-1.12l-.54-.73-3.24-2-.15-.19-5.13-3.19-24.5-16.74a11.11,11.11,0,0,0-3.1-.16,9.08,9.08,0,0,0-2.44.32,2.7,2.7,0,0,0-1.12.64,4.59,4.59,0,0,0-2.36.19,1.5,1.5,0,0,0-.76,1.2c-1.14.27-2.58.76-2.39,1.48-1.2.13-2.41.29-3.6.49a16.19,16.19,0,0,0-1.74.41c-2.81.14-5.62.31-8.42.53,1.4-.12-10.17.71-6.51,2.47l2,.95-1,.08a31.2,31.2,0,0,0-8.26,1.33c-1.17.55-1.13,1,.1,1.37l3.63,1.43c-.22.19-.28.36-.18.52a26.47,26.47,0,0,0-2.73.91c-.73.45-.89.81-.46,1.1a2.28,2.28,0,0,0-1.53.78c-.75.44-.55.76.61,1l3,1c-.47.18-.94.37-1.41.58-1,.63-.89,1.08.2,1.34a2,2,0,0,0-.48.48c-.66.47-.45.78.62.93l7.27,2.73c-.44.53-.24.88.61,1.06l2.83,1.41a56.48,56.48,0,0,1-12.25,7.15,94.53,94.53,0,0,1-27.23,6.92,104.25,104.25,0,0,1-14,.69c-6.6-.13-13.18-1-19.76-1.47-2.22-.15-4.43-.33-6.64-.52l-1.81-.17-.15,0A318.85,318.85,0,0,1,269,282c-17.11-4.68-33.82-10.49-50.41-16.75-8.6-3.24-16.89-6.64-25.17-10.57q-8.16-3.87-16-8.26A167.11,167.11,0,0,1,158,234.28a108.79,108.79,0,0,1-11.31-9.92,74.18,74.18,0,0,1-11.23-14.12c-2.77-4.63-4.73-9.72-7.07-14.58a5.49,5.49,0,0,0-2.31,2.59l-.26.2c-.53-1.25-1.06-2.5-1.6-3.74a4.84,4.84,0,0,0-2.37,3.22c-.18-.34-.35-.68-.54-1a6,6,0,0,0-1.23,1.13c-.34-.79-.69-1.57-1-2.35a5.16,5.16,0,0,0-2.33,3.61c-1.31,3.63-2.52,7.29-3.67,11-.52-1.19-1-2.38-1.54-3.57l-.46-1-.87.63-1.1,2.3c0,.15-.09.31-.14.46a29.76,29.76,0,0,0-1.69,4.72q-.8,2.8-1.52,5.61c-.15-.53-.3-1.07-.42-1.61-1.13-3.09-3.21,4.61-3,4q-1.11,4.22-1.9,8.5a9.59,9.59,0,0,0-.29,4.57l.09.2-.06.26a13.53,13.53,0,0,0-.54,5.43l.82,1.4a11.08,11.08,0,0,0,0,2.7l3.78,6.73a59.32,59.32,0,0,0,7.93,10.18,109.15,109.15,0,0,0,13.81,12.77c1.33,1,2.68,2,4,3,4.14,3.24,8.45,6.25,12.91,9.09a214.8,214.8,0,0,0,28.08,14.6c10.11,4.51,20.67,8.27,31.17,11.77s20.93,6.91,31.46,10.17c23.23,7.21,46.83,13.07,70.94,16.51A352.42,352.42,0,0,0,340.9,343c4.29.16,8.65.21,13,.11,5.3,0,10.6-.1,15.88-.56,5.73-.51,11.42-1.19,17.09-2.18,14.06-2.46,28.38-7.45,40.31-15.41.41-.27.81-.56,1.21-.83a96.51,96.51,0,0,0,8.19-5.76,89.72,89.72,0,0,0,12.89-12.29,113.48,113.48,0,0,0,10.65-15.4c.31-.3.41-.57.34-.82a62.66,62.66,0,0,0,4.11-7.23Z" transform="translate(-16.9 -107.67)"/><path class="cls-3" d="M70.9,190.38l2.49-5.56q3.48-5.34,6.62-10.88a4.69,4.69,0,0,0-.46-.21c.72-1.18,1.45-2.35,2.16-3.54a5.35,5.35,0,0,0-4.37-.15l-.12,0c.18-.27.34-.54.52-.8a4,4,0,0,0-1.45-.51q1.3-2.08,2.6-4.2a5.28,5.28,0,0,0-4.33.06c-1.94.48-3.88,1-5.81,1.5l2.5-3.83a4.13,4.13,0,0,0-3.75,0c-2.68.74-5.34,1.55-8,2.4l-.53-.21-2,.27c.16-.24.32-.48.49-.71.46-.72.48-1.14-.49-1.29l-2.16.3c-1.85.53-3.67,1.14-5.48,1.79l.52-.43c.39-.65.22-1.08-.51-1.28a8.24,8.24,0,0,0-4.12.9q-3.76,1.35-7.42,3a8.36,8.36,0,0,0-2.75,1.46c-.77.32-1.55.63-2.32,1a9.83,9.83,0,0,0-4,2.35,28.59,28.59,0,0,0-6,11.32A67.38,67.38,0,0,0,19.31,196a79.84,79.84,0,0,0-1.41,13.61,74.53,74.53,0,0,0-.69,9.08c-.26,3.43-.36,6.86-.28,10.31a122.9,122.9,0,0,0,4.57,30.19,126.18,126.18,0,0,0,7.38,19.76,123.59,123.59,0,0,0,10.89,18.6A1.92,1.92,0,0,0,41,297c.92,1.39,1.86,2.77,2.84,4.12a2,2,0,0,0,2-1.26c.34-.54.65-1.09,1-1.63.94,1.38,1.89,2.75,2.88,4.1.38.57,1.26-.18,2.21-1.34l.27.39c.52.77,1.85-.64,3.06-2.26,1.36.59,5.63-6.18,5.58-6.11.63-.89,1.23-1.8,1.79-2.73a9.8,9.8,0,0,0,1.06-1.89c.17-.3.35-.59.51-.9A1.77,1.77,0,0,0,64.4,286c1.28-1.94,2.5-3.92,3.61-6a2.18,2.18,0,0,0,.23-2.46l-.74-1.16c.33-.58.65-1.16,1-1.75,1.84-2.81,3.64-5.64,5.35-8.52a4.17,4.17,0,0,0,1-3.66c-.51-.87-1-1.75-1.48-2.64a4.19,4.19,0,0,0,.79-2.54,2.88,2.88,0,0,0,.09-.4,5.31,5.31,0,0,0,1.16-4.1,64.28,64.28,0,0,1-4-10.43,66.51,66.51,0,0,1-2.77-10.86,86.48,86.48,0,0,1-1.21-22.43A80.59,80.59,0,0,1,70.9,190.38Z" transform="translate(-16.9 -107.67)"/><path class="cls-4" d="M293,178.61a4.13,4.13,0,0,0,.56-2.75,5.46,5.46,0,0,0,1.13-4.17,76.75,76.75,0,0,1-4.17-13.07,48.08,48.08,0,0,1-1.38-10,37.33,37.33,0,0,1,.16-9.62q1.25-5.78,2-11.63a5.48,5.48,0,0,0-4.15,1.56l-.74.51c.06-.6.12-1.2.16-1.81l-.45,0c.26-1.5.53-3,.77-4.49a4.87,4.87,0,0,0-3.12,1,5.61,5.61,0,0,0-3.84,1.81l-1.24,1c.1-.53.18-1,.29-1.58l.19-1.07-1.09,0-2.24,1.3q-3.6,2.72-7,5.68l-1.28,1.08c.17-.9.32-1.81.49-2.71s.07-1.19-.73-1c-.75-1.15-6.5,4.08-5.77,3.45-.72.64-1.43,1.3-2.14,2a11,11,0,0,0-3.26,2c.07-.7-.26-1-1-.94a7.41,7.41,0,0,0-3.28,2.28q-2.78,2.57-5.34,5.36a7.5,7.5,0,0,0-2.27,3.29,32.29,32.29,0,0,0-1.42,10.51c-.05,2.27-.15,4.54-.14,6.81,0,1.34.07,2.66.16,4a53.79,53.79,0,0,0,.33,7.15c.34,2.9.82,5.91,1.43,8.77s1.57,5.73,2.38,8.54c2.61,9.06,7.66,17.4,12.49,25.37a2,2,0,0,0,1.32-.63c.88,1.44,1.79,2.86,2.76,4.24a2.07,2.07,0,0,0,2-1.37c.36-.57.7-1.16,1-1.74.89,1.45,1.82,2.88,2.81,4.27.35.56,1.22-.22,2.18-1.43l.32.47c.46.74,1.75-.66,3-2.31,1.25.8,5.86-6.6,5.76-6.45.33-.48.62-1,.93-1.46a14.38,14.38,0,0,0,2.08-3.58c.14-.26.3-.51.43-.78a1.83,1.83,0,0,0,.29-1.5c1.23-1.93,2.41-3.89,3.48-5.92a2.24,2.24,0,0,0,.23-2.52l-.68-1.21c.39-.72.79-1.44,1.16-2.17a3.05,3.05,0,0,0,.41-.83q2.23-3.56,4.34-7.2a4.34,4.34,0,0,0,1-3.73C293.81,180.43,293.38,179.53,293,178.61Z" transform="translate(-16.9 -107.67)"/><path class="cls-5" d="M379,110.4a5.52,5.52,0,0,0-3.64,2.61l-.67.78q-.17-3.06-.43-6.12a5,5,0,0,0-3.34,2.53l-.33.42c-.08-.8-.14-1.6-.23-2.4A5.4,5.4,0,0,0,367,111c-.06.08-.11.16-.17.23l-.34.1-1.82,1.76c-1.35,1.7-2.65,3.44-3.92,5.21,0-.43-.05-.87-.09-1.3l-.09-1.11-1.06.35L357.77,118l0-.35c.05-.94-.34-1.18-1.16-.73-1.33-.31-5.2,6-4.77,5.35-.47.71-.92,1.44-1.38,2.15,0-.12,0-.24,0-.36,0-.87-.41-1.1-1.18-.7a12,12,0,0,0-3.2,4c-.33.52-.64,1-1,1.58a5.38,5.38,0,0,0-2,2.35c-1.16,1.78-2.22,3.63-3.2,5.52a5.49,5.49,0,0,0-1,3.22c.17,1,.3,2,.43,3,0,.49.05,1,.08,1.47a15.36,15.36,0,0,0-1.14,3c.23,1.26.42,2.53.59,3.79l0,.14c.14.89.24,1.78.35,2.66a77.62,77.62,0,0,1,.34,10.23q.09,4.29-.07,8.57c-.07.75-.12,1.5-.2,2.24-.4,3-.79,5.91-1.19,8.87a164.35,164.35,0,0,1-5,21c-.13.48-.47,1.37,0,1.82l-.33,1.17c-.09.86.27,1.14,1.09.83l0,0c-.49,1.81-1,3.61-1.57,5.4-.19.94.16,1.24,1.06.88l.14-.11c-.31,1.08-.61,2.16-1,3.23-.14.85.2,1.16,1,.92a11.66,11.66,0,0,0,3.9-3.26c.4-.42.78-.85,1.18-1.28-.65,2.46-1.34,4.91-2.1,7.34-.19.81.12,1.15.94,1a10.83,10.83,0,0,0,3.27-2.1c.06.83,1.11.42,2.33-.34-.28.93-.55,1.87-.84,2.8-.51,1.78,1.32,1,2.8.09a1.58,1.58,0,0,0,.48.09,7.1,7.1,0,0,0,3.39-1.83q2.94-2.17,5.68-4.59a7.63,7.63,0,0,0,1.24-1.08c.63-.52,1.26-1,1.87-1.56a7.46,7.46,0,0,0,2.61-3c.2-.67.38-1.34.57-2,.42-.37.86-.73,1.27-1.1a11.51,11.51,0,0,0,3.36-3.76c.26-.9.48-1.8.72-2.71a26.1,26.1,0,0,0,3.38-4c.15-.66.27-1.33.41-2l.55-.52c1.53-1.51,3.51-3.09,3.9-5.29.57-2.79,1.06-5.59,1.52-8.4a5,5,0,0,0,.35-1.16,174.63,174.63,0,0,0,2.3-18.07q1-9,1.05-18.15,0-6,.05-12A134.07,134.07,0,0,0,379,110.4Z" transform="translate(-16.9 -107.67)"/></svg>