<svg id="レイヤー_1" data-name="レイヤー 1" xmlns="http://www.w3.org/2000/svg" viewBox="0 0 157.78 40.31"><defs><style>.cls-1{fill:none;stroke:#c8c8c8;stroke-miterlimit:10;}</style></defs><path class="cls-1" d="M63.81,176.32a54.9,54.9,0,0,0,1.65-5.57L72.15,144c.51-2,.83-3.59,1.17-5.68a34.08,34.08,0,0,0,3.43.15H83.2c4.86,0,6.63,3.94,4.89,10.85-1.83,7.32-5.73,11.55-10.66,11.54h-7l-2.45,9.8a48.93,48.93,0,0,0-1.16,5.63Zm14.48-18.85c3.35,0,6-2.83,7.23-7.91s.07-7.61-3.34-7.62h-7l-3.89,15.52Z" transform="translate(-63.1 -137.29)"/><path class="cls-1" d="M100.7,176.35c.28-1.49.35-3.54.27-8.51-.13-6.82-.87-8.76-3.4-8.77H91.73l-2.92,11.65a48.49,48.49,0,0,0-1.15,5.62H84.72a52.67,52.67,0,0,0,1.65-5.58L93,144.09c.54-2.14.88-3.73,1.19-5.72a33,33,0,0,0,3.4.15h7c4.58,0,6.26,3.39,4.71,9.56a15.22,15.22,0,0,1-3.72,7.32,8.3,8.3,0,0,1-4,2.48c1.15.6,1.6,2,1.85,5.48.18,2.34.29,4.93.41,8.36,0,1.94.12,3.44.26,4.63Zm-.63-20.71a5.71,5.71,0,0,0,4.11-2.14,11.37,11.37,0,0,0,2.46-5c1.06-4.23,0-6.52-3-6.52H96l-3.42,13.69Z" transform="translate(-63.1 -137.29)"/><path class="cls-1" d="M133.42,157.46c-3,12-9.19,19.65-15.85,19.65s-9-7.67-6-19.67,9.22-19.65,15.85-19.65S136.42,145.46,133.42,157.46Zm-8.59,12.73c2.5-2.78,4.66-7.41,6-12.73,1.37-5.48,1.52-9.86.41-12.75a4.83,4.83,0,0,0-4.67-3.43c-5,0-10,6.36-12.41,16.11s-.7,16.18,4.36,16.18C120.7,173.57,122.84,172.43,124.83,170.19Z" transform="translate(-63.1 -137.29)"/><path class="cls-1" d="M153.41,138.56a50.18,50.18,0,0,0-1.65,5.57l-5.56,22.2a20.62,20.62,0,0,1-3.18,7.51,7.12,7.12,0,0,1-5.87,3.13,4.39,4.39,0,0,1-4.46-3,11.92,11.92,0,0,1-.63-3.78l2.9-1.64a9.27,9.27,0,0,0,.36,3,2.66,2.66,0,0,0,2.74,2c2.68,0,4.43-2.19,5.68-7.17l5.55-22.19a50.26,50.26,0,0,0,1.15-5.58Z" transform="translate(-63.1 -137.29)"/><path class="cls-1" d="M165,176.74a12.26,12.26,0,0,0-3.45-.35h-9.26a34.8,34.8,0,0,0-3.51.15c.66-1.89,1.1-3.38,1.74-5.92l6.64-26.53c.53-2.14.81-3.48,1.17-5.67a32.84,32.84,0,0,0,3.43.15h9a16.26,16.26,0,0,0,3.63-.35l-1.05,4.18a13.12,13.12,0,0,0-3.45-.35h-9.73L157,154.79h8.31a17.75,17.75,0,0,0,3.63-.34l-1,4.17a13.09,13.09,0,0,0-3.45-.35h-8.31l-3.66,14.63h10a16.08,16.08,0,0,0,3.59-.35Z" transform="translate(-63.1 -137.29)"/><path class="cls-1" d="M192.94,149.33a12.4,12.4,0,0,0-.39-4.38,4.48,4.48,0,0,0-4.57-3.58c-5.11,0-9.88,6.16-12.36,16.07s-.78,16.12,4.3,16.13c2.5,0,5-1.49,7-4.18a19.35,19.35,0,0,0,2.5-5l2.38,1a27.31,27.31,0,0,1-3.19,5.92c-2.7,3.73-6.09,5.77-9.63,5.77a6.28,6.28,0,0,1-6.29-4.39c-1.34-3.48-1.18-8.91.38-15.13,1.6-6.42,4.22-11.84,7.47-15.47,2.53-2.79,5.29-4.23,8.29-4.23a6,6,0,0,1,6.07,4,14.88,14.88,0,0,1,.89,6.27Z" transform="translate(-63.1 -137.29)"/><path class="cls-1" d="M203.42,170.79a51.31,51.31,0,0,0-1.15,5.63h-3a55.73,55.73,0,0,0,1.66-5.63l7.19-28.71h-4.93a15.65,15.65,0,0,0-3.72.35l1.05-4.18a13.17,13.17,0,0,0,3.51.35h12.32a15.22,15.22,0,0,0,3.81-.35l-1,4.18a13.47,13.47,0,0,0-3.64-.35h-4.9Z" transform="translate(-63.1 -137.29)"/></svg>