<svg id="レイヤー_1" data-name="レイヤー 1" xmlns="http://www.w3.org/2000/svg" xmlns:xlink="http://www.w3.org/1999/xlink" viewBox="0 0 133.06 133.06"><defs><style>.cls-1,.cls-2{fill:none;}.cls-2{stroke:#2f2f2f;stroke-miterlimit:10;}.cls-3{clip-path:url(#clip-path);}.cls-4{fill:#fff;}</style><clipPath id="clip-path" transform="translate(-13.71 -225.1)"><rect class="cls-1" x="42.65" y="261.46" width="79.18" height="64.34"/></clipPath></defs><circle class="cls-2" cx="66.53" cy="66.53" r="66.03"/><g id="Logo"><g class="cls-3"><g class="cls-3"><path class="cls-4" d="M113.72,277.47c0,.7,0,1.4,0,2.1,0,21.47-16.34,46.23-46.22,46.23v0a45.89,45.89,0,0,1-24.9-7.28,33.19,33.19,0,0,0,3.86.24,32.65,32.65,0,0,0,20.18-7,16.28,16.28,0,0,1-15.18-11.28,16.25,16.25,0,0,0,7.34-.28,16.25,16.25,0,0,1-13-15.93v-.2a16.09,16.09,0,0,0,7.37,2,16.26,16.26,0,0,1-5-21.69,46.1,46.1,0,0,0,33.48,17,16.26,16.26,0,0,1,27.69-14.81,32.74,32.74,0,0,0,10.31-3.95,16.31,16.31,0,0,1-7.14,9,32.49,32.49,0,0,0,9.33-2.56,32.92,32.92,0,0,1-8.11,8.41" transform="translate(-13.71 -225.1)"/></g></g></g></svg>